<svg width="51" height="50" fill="none" xmlns="http://www.w3.org/2000/svg"><path d="M25.47 50c13.807 0 25-11.193 25-25s-11.193-25-25-25-25 11.193-25 25 11.193 25 25 25Z" fill="#FCE82F"/><path d="M25.47 9.123C16.703 9.123 9.572 16.246 9.572 25c0 8.755 7.13 15.877 15.896 15.877 8.766 0 15.898-7.122 15.898-15.877 0-8.754-7.132-15.877-15.898-15.877Zm10.46 7.494a13.332 13.332 0 0 1 2.966 8.178c-.603-.123-3.159-.6-6.212-.6-.985 0-2.022.05-3.062.178a41.815 41.815 0 0 0-1.129-2.524c4.7-1.936 6.967-4.624 7.437-5.232Zm-10.46-5.008c3.387 0 6.483 1.258 8.848 3.33-.374.512-2.405 3.05-6.936 4.762a72.575 72.575 0 0 0-4.94-7.747 13.406 13.406 0 0 1 3.027-.345ZM19.7 12.91a86.712 86.712 0 0 1 4.915 7.65c-5.775 1.518-10.902 1.617-12.14 1.617h-.131C13.233 18.08 16 14.675 19.7 12.91ZM12.04 25.021c0-.11.002-.22.005-.33h.353c1.666 0 7.452-.137 13.414-1.907.361.708.706 1.426 1.026 2.144-.15.043-.299.087-.446.135-6.713 2.168-10.402 7.908-10.97 8.846a13.346 13.346 0 0 1-3.382-8.888Zm13.43 13.412c-3.08 0-5.923-1.043-8.191-2.792.384-.752 3.168-5.766 10.525-8.327a.101.101 0 0 1 .014-.005c1.845 4.803 2.626 8.833 2.84 10.082a13.355 13.355 0 0 1-5.188 1.042Zm7.608-2.364c-.18-1.033-.904-4.81-2.575-9.418a17.603 17.603 0 0 1 2.703-.203c2.807 0 5.003.614 5.513.77a13.437 13.437 0 0 1-5.642 8.851Z" fill="#000"/></svg>