<svg width="51" height="50" fill="none" xmlns="http://www.w3.org/2000/svg"><path d="M25.47 50c13.807 0 25-11.193 25-25s-11.193-25-25-25-25 11.193-25 25 11.193 25 25 25Z" fill="#FCE82F"/><path d="M34.432 20.652c-7.22 0-7.23 7.193-7.23 7.23 0 0-.495 7.203 7.23 7.203 0 0 6.443.366 6.443-5.013h-3.309s.11 2.025-3.024 2.025c0 0-3.308.22-3.308-3.271h9.75s1.073-8.174-6.552-8.174Zm-3.235 5.654s.404-2.896 3.309-2.896c2.914 0 2.868 2.896 2.868 2.896h-6.177Zm-8.265-1.851s2.869-.21 2.869-3.583c0-3.363-2.346-5.013-5.325-5.013H10.68v18.832h9.795s5.985.183 5.985-5.563c0 0 .257-4.673-3.528-4.673Zm-7.936-5.251h5.48s1.329 0 1.329 1.96c0 1.962-.78 2.246-1.668 2.246h-5.14v-4.206Zm5.205 12.142h-5.205v-5.04h5.48s1.989-.019 1.98 2.593c0 2.2-1.476 2.429-2.255 2.447Zm10.18-14.378v2.319h7.772v-2.319h-7.771Z" fill="#000"/></svg>