<svg width="40" height="40" fill="none" xmlns="http://www.w3.org/2000/svg"><path d="m39.223 31.806-4.435-2.956-3.942-2.628a1.746 1.746 0 0 0-2.345.381l-2.439 3.136a1.737 1.737 0 0 1-2.218.46c-1.655-.92-3.612-1.788-7.93-6.112-4.32-4.324-5.192-6.276-6.112-7.93a1.737 1.737 0 0 1 .46-2.219l3.135-2.439c.721-.561.887-1.584.381-2.345l-2.547-3.82L8.194.778a1.746 1.746 0 0 0-2.351-.53L2.34 2.35A4.28 4.28 0 0 0 .397 4.865C-.561 8.358-.754 16.062 11.593 28.41c12.346 12.346 20.05 12.153 23.542 11.195a4.28 4.28 0 0 0 2.515-1.944l2.102-3.502c.479-.8.246-1.835-.53-2.352Z" fill="#FCE82F"/><path d="M22.758 6.207c6.472.007 11.717 5.252 11.724 11.724a.69.69 0 1 0 1.38 0c-.008-7.234-5.87-13.095-13.104-13.103a.69.69 0 0 0 0 1.379Z" fill="#FCE82F"/><path d="M22.758 10.345a7.595 7.595 0 0 1 7.586 7.586.69.69 0 0 0 1.38 0 8.976 8.976 0 0 0-8.966-8.966.69.69 0 1 0 0 1.38Z" fill="#FCE82F"/><path d="M22.758 14.483a3.452 3.452 0 0 1 3.448 3.448.69.69 0 0 0 1.38 0 4.833 4.833 0 0 0-4.828-4.828.69.69 0 0 0 0 1.38Z" fill="#FCE82F"/></svg>